<svg version="1.1" id="Layer_1" xmlns="http://www.w3.org/2000/svg" xmlns:xlink="http://www.w3.org/1999/xlink" x="0px" y="0px"
	 width="100%" viewBox="0 0 3286 1714" enable-background="new 0 0 3286 1714" xml:space="preserve">
<path fill="#000000" opacity="1.000000" stroke="none" 
	d="
M2.000000,1406.000000 
	C2.000000,938.063599 2.000000,470.127258 2.000000,2.095443 
	C1097.120728,2.095443 2192.241455,2.095443 3288.000000,2.095443 
	C3288.000000,464.058563 3288.000000,926.117432 3287.234863,1389.090942 
	C3265.028809,1398.614868 3243.506592,1407.029053 3222.174561,1415.900269 
	C3207.282471,1422.093262 3192.650635,1428.912109 3177.076172,1435.459961 
	C3169.329346,1434.864624 3162.375488,1434.514526 3155.494141,1433.610840 
	C3131.897949,1430.512451 3108.411133,1425.936279 3084.721680,1424.391113 
	C3064.272949,1423.057251 3043.542969,1424.277100 3023.051514,1425.853882 
	C3001.861084,1427.484375 2981.224121,1432.765991 2960.961426,1439.294678 
	C2931.393066,1448.821533 2903.757568,1462.617920 2876.429199,1477.147217 
	C2873.329102,1478.795288 2869.611572,1479.282471 2865.412109,1480.432861 
	C2863.025879,1480.885376 2861.420654,1481.406616 2859.788330,1481.510986 
	C2837.048340,1482.964355 2814.275635,1484.004761 2791.568359,1485.852905 
	C2756.164062,1488.734131 2721.220215,1494.626465 2686.626709,1502.767944 
	C2659.674561,1509.110962 2633.458496,1517.772217 2608.058350,1528.542236 
	C2580.539551,1540.210571 2553.794189,1553.691528 2526.408936,1565.691772 
	C2507.872559,1573.814453 2488.813965,1580.744629 2469.094238,1588.146362 
	C2462.943359,1588.156860 2457.686768,1588.229248 2451.469971,1588.204590 
	C2404.408691,1588.932251 2358.175049,1585.218628 2312.249023,1591.988159 
	C2297.190186,1594.207642 2282.018555,1596.024170 2267.177002,1599.289429 
	C2224.766357,1608.620117 2185.127930,1625.723511 2145.110840,1643.890625 
	C2129.173828,1645.208740 2114.028076,1646.339966 2098.929199,1647.918091 
	C2086.757568,1649.190308 2074.528320,1650.405640 2062.525879,1652.699341 
	C2037.797119,1657.424927 2013.431030,1663.421753 1989.882935,1672.799805 
	C1973.451172,1679.343750 1957.333740,1686.148193 1943.513794,1697.315063 
	C1937.440674,1702.222412 1930.668701,1707.011841 1930.000000,1716.000000 
	C1749.274536,1716.000000 1568.549194,1716.000000 1386.556396,1715.426147 
	C1362.299683,1698.790527 1337.373413,1686.409912 1311.583252,1675.555786 
	C1273.098267,1659.358521 1233.458862,1646.793945 1192.172241,1640.771851 
	C1158.836792,1635.909302 1125.099609,1633.867310 1091.639893,1629.764771 
	C1068.926147,1626.979736 1046.064941,1624.148560 1023.842285,1618.908936 
	C992.798279,1611.589478 962.018921,1602.843628 931.645630,1593.091187 
	C911.781982,1586.713379 892.479736,1578.227173 873.595764,1569.272827 
	C858.606628,1562.165527 844.549438,1553.057617 830.225830,1544.588623 
	C791.458679,1521.667480 750.918884,1502.483643 708.245178,1488.154785 
	C669.476685,1475.137085 630.095276,1464.003052 589.924683,1456.193481 
	C559.961731,1450.368408 529.827454,1445.133911 499.081848,1445.551392 
	C493.549744,1445.626587 488.014832,1445.511597 482.481384,1445.463745 
	C471.896576,1445.372437 461.312012,1445.240967 450.727081,1445.184204 
	C448.101562,1445.170166 445.471283,1445.522339 442.849396,1445.457031 
	C434.575775,1445.251221 426.305054,1444.927246 417.353577,1444.360107 
	C400.410736,1437.302246 384.324860,1430.060303 367.840454,1423.881592 
	C346.216522,1415.776123 323.351379,1412.508301 300.533264,1412.558105 
	C283.858337,1412.594482 266.831268,1412.978882 250.317596,1417.095581 
	C242.299606,1419.094360 234.153946,1420.580933 225.243195,1422.184814 
	C193.867020,1416.448730 163.586380,1409.189697 132.449570,1407.093628 
	C123.889908,1406.517456 115.364548,1405.410156 106.830063,1404.485596 
	C79.463005,1401.520630 52.097687,1399.548340 24.637760,1403.528198 
	C17.130110,1404.616211 9.547957,1405.190063 2.000000,1406.000000 
z"/>
<path fill="#0060A7" opacity="1.000000" stroke="none" 
	d="
M2866.180420,1480.307861 
	C2869.611572,1479.282471 2873.329102,1478.795288 2876.429199,1477.147217 
	C2903.757568,1462.617920 2931.393066,1448.821533 2960.961426,1439.294678 
	C2981.224121,1432.765991 3001.861084,1427.484375 3023.051514,1425.853882 
	C3043.542969,1424.277100 3064.272949,1423.057251 3084.721680,1424.391113 
	C3108.411133,1425.936279 3131.897949,1430.512451 3155.494141,1433.610840 
	C3162.375488,1434.514526 3169.329346,1434.864624 3177.680176,1435.946289 
	C3182.575439,1437.470703 3185.976807,1439.059204 3189.516357,1439.479248 
	C3222.229004,1443.360107 3255.053467,1445.080566 3288.000000,1444.000000 
	C3288.000000,1500.708496 3288.000000,1557.416870 3287.116699,1615.034058 
	C3282.913086,1616.168579 3279.566650,1616.202271 3276.276367,1616.649780 
	C3242.403076,1621.256592 3208.564453,1620.383423 3174.637695,1616.894531 
	C3134.438965,1612.760742 3095.012695,1604.449341 3055.642334,1595.828613 
	C3022.361572,1588.540894 2988.755615,1583.574829 2954.758057,1582.284424 
	C2905.162109,1580.402222 2857.006592,1588.440674 2811.319580,1608.056885 
	C2782.574951,1620.398804 2754.480957,1634.292603 2726.340576,1647.994019 
	C2703.426025,1659.151001 2679.639160,1667.382446 2654.676270,1672.447510 
	C2623.206543,1678.832764 2591.276123,1681.384399 2559.342529,1681.541260 
	C2524.087158,1681.714478 2488.788330,1680.080566 2453.567383,1678.156982 
	C2418.341797,1676.233276 2383.192871,1672.923096 2348.002441,1670.328979 
	C2327.418457,1668.811401 2306.838379,1666.999023 2286.222412,1666.205078 
	C2237.658936,1664.335083 2189.798828,1670.222900 2142.477783,1680.801270 
	C2115.821777,1686.759888 2089.314209,1693.387451 2062.632568,1699.223267 
	C2049.013672,1702.201904 2035.158081,1704.099243 2021.860596,1706.057617 
	C2025.511353,1703.880737 2028.626831,1701.951172 2031.923828,1700.409912 
	C2066.599365,1684.200439 2101.343750,1668.137085 2135.942871,1651.767578 
	C2139.675293,1650.001831 2142.614990,1646.560913 2145.922363,1643.896973 
	C2185.127930,1625.723511 2224.766357,1608.620117 2267.177002,1599.289429 
	C2282.018555,1596.024170 2297.190186,1594.207642 2312.249023,1591.988159 
	C2358.175049,1585.218628 2404.408691,1588.932251 2452.152100,1588.457764 
	C2459.173584,1588.912476 2464.552734,1589.016846 2470.732422,1589.402954 
	C2477.118896,1590.338623 2482.710693,1591.587036 2488.288818,1591.526367 
	C2500.922363,1591.389282 2513.543945,1590.377197 2526.178711,1590.128540 
	C2570.937744,1589.247559 2615.053711,1583.524658 2658.621582,1573.272339 
	C2725.361084,1557.567383 2786.539062,1528.362061 2846.497559,1496.162964 
	C2852.361328,1493.013916 2858.208252,1489.833496 2864.075439,1486.691528 
	C2866.828369,1485.217285 2868.181396,1483.327515 2866.180420,1480.307861 
z"/>
<path fill="#0060A7" opacity="1.000000" stroke="none" 
	d="
M226.066086,1422.299438 
	C234.153946,1420.580933 242.299606,1419.094360 250.317596,1417.095581 
	C266.831268,1412.978882 283.858337,1412.594482 300.533264,1412.558105 
	C323.351379,1412.508301 346.216522,1415.776123 367.840454,1423.881592 
	C384.324860,1430.060303 400.410736,1437.302246 417.827087,1444.798950 
	C453.375275,1463.479004 484.581390,1486.113647 514.731384,1510.359863 
	C544.322449,1534.156616 577.110962,1552.091064 613.207703,1564.199829 
	C665.647583,1581.790894 719.783020,1590.449829 774.576843,1595.584106 
	C825.966187,1600.399414 877.259094,1605.812500 927.917053,1615.970093 
	C971.739258,1624.757202 1015.018677,1635.505615 1055.403564,1655.358765 
	C1072.102661,1663.568115 1088.944580,1671.731567 1101.606689,1685.128296 
	C1097.375977,1685.274536 1094.043579,1685.450684 1090.729004,1685.281006 
	C1071.114258,1684.276611 1051.482056,1683.486572 1031.897583,1682.051758 
	C1011.986206,1680.593140 992.001953,1679.312500 972.264709,1676.463501 
	C932.783813,1670.764771 895.394287,1657.536011 858.426636,1642.979736 
	C832.397583,1632.730835 806.399780,1622.323608 779.973877,1613.184448 
	C754.681763,1604.437378 728.458069,1600.105103 701.505859,1599.774414 
	C672.559509,1599.419312 644.353821,1603.632690 616.703430,1611.602417 
	C593.983459,1618.151123 571.525269,1625.607544 548.947632,1632.650635 
	C512.117432,1644.139893 474.482361,1650.870239 435.835266,1649.694946 
	C418.275909,1649.160645 400.488922,1649.000488 383.424835,1643.467651 
	C368.213898,1638.535767 352.973236,1633.694336 337.722656,1628.885864 
	C270.088287,1607.561646 201.181580,1596.567139 129.987946,1601.559814 
	C94.061432,1604.079590 58.322868,1607.632324 22.795790,1613.474854 
	C15.911606,1614.606934 8.934325,1615.172852 1.999994,1616.000000 
	C2.000000,1557.291504 2.000000,1498.583130 2.847718,1438.911133 
	C15.777707,1440.110107 27.897005,1442.085938 39.934952,1444.472046 
	C69.150185,1450.263306 98.698349,1453.314331 128.022690,1447.605347 
	C158.631378,1441.646240 188.785507,1433.340820 219.101196,1425.909668 
	C221.569504,1425.304565 223.751205,1423.530396 226.066086,1422.299438 
z"/>
<path fill="#0076CE" opacity="1.000000" stroke="none" 
	d="
M1.999994,1616.937256 
	C8.934325,1615.172852 15.911606,1614.606934 22.795790,1613.474854 
	C58.322868,1607.632324 94.061432,1604.079590 129.987946,1601.559814 
	C201.181580,1596.567139 270.088287,1607.561646 337.722656,1628.885864 
	C352.973236,1633.694336 368.213898,1638.535767 383.424835,1643.467651 
	C400.488922,1649.000488 418.275909,1649.160645 435.835266,1649.694946 
	C474.482361,1650.870239 512.117432,1644.139893 548.947632,1632.650635 
	C571.525269,1625.607544 593.983459,1618.151123 616.703430,1611.602417 
	C644.353821,1603.632690 672.559509,1599.419312 701.505859,1599.774414 
	C728.458069,1600.105103 754.681763,1604.437378 779.973877,1613.184448 
	C806.399780,1622.323608 832.397583,1632.730835 858.426636,1642.979736 
	C895.394287,1657.536011 932.783813,1670.764771 972.264709,1676.463501 
	C992.001953,1679.312500 1011.986206,1680.593140 1031.897583,1682.051758 
	C1051.482056,1683.486572 1071.114258,1684.276611 1090.729004,1685.281006 
	C1094.043579,1685.450684 1097.375977,1685.274536 1102.423950,1685.341064 
	C1118.000610,1686.894043 1131.866943,1688.246826 1145.703247,1689.858032 
	C1175.090820,1693.279785 1204.266724,1697.806763 1232.018921,1708.663452 
	C1236.890503,1710.569214 1241.350098,1713.527710 1246.000000,1716.000000 
	C831.333313,1716.000000 416.666656,1716.000000 2.000000,1716.000000 
	C2.000000,1683.165527 2.000000,1650.520020 1.999994,1616.937256 
z"/>
<path fill="#0076CE" opacity="1.000000" stroke="none" 
	d="
M2021.409546,1706.485352 
	C2035.158081,1704.099243 2049.013672,1702.201904 2062.632568,1699.223267 
	C2089.314209,1693.387451 2115.821777,1686.759888 2142.477783,1680.801270 
	C2189.798828,1670.222900 2237.658936,1664.335083 2286.222412,1666.205078 
	C2306.838379,1666.999023 2327.418457,1668.811401 2348.002441,1670.328979 
	C2383.192871,1672.923096 2418.341797,1676.233276 2453.567383,1678.156982 
	C2488.788330,1680.080566 2524.087158,1681.714478 2559.342529,1681.541260 
	C2591.276123,1681.384399 2623.206543,1678.832764 2654.676270,1672.447510 
	C2679.639160,1667.382446 2703.426025,1659.151001 2726.340576,1647.994019 
	C2754.480957,1634.292603 2782.574951,1620.398804 2811.319580,1608.056885 
	C2857.006592,1588.440674 2905.162109,1580.402222 2954.758057,1582.284424 
	C2988.755615,1583.574829 3022.361572,1588.540894 3055.642334,1595.828613 
	C3095.012695,1604.449341 3134.438965,1612.760742 3174.637695,1616.894531 
	C3208.564453,1620.383423 3242.403076,1621.256592 3276.276367,1616.649780 
	C3279.566650,1616.202271 3282.913086,1616.168579 3287.116699,1615.971436 
	C3288.000000,1649.312622 3288.000000,1682.625366 3288.000000,1716.000000 
	C2851.958252,1716.000000 2415.916504,1716.000000 1979.342285,1715.367432 
	C1981.899048,1713.819580 1984.934692,1712.604126 1988.086914,1712.042725 
	C1999.172852,1710.068848 2010.298828,1708.319702 2021.409546,1706.485352 
z"/>
<path fill="#004679" opacity="1.000000" stroke="none" 
	d="
M1246.937256,1716.000000 
	C1241.350098,1713.527710 1236.890503,1710.569214 1232.018921,1708.663452 
	C1204.266724,1697.806763 1175.090820,1693.279785 1145.703247,1689.858032 
	C1131.866943,1688.246826 1118.000610,1686.894043 1103.330566,1685.211426 
	C1088.944580,1671.731567 1072.102661,1663.568115 1055.403564,1655.358765 
	C1015.018677,1635.505615 971.739258,1624.757202 927.917053,1615.970093 
	C877.259094,1605.812500 825.966187,1600.399414 774.576843,1595.584106 
	C719.783020,1590.449829 665.647583,1581.790894 613.207703,1564.199829 
	C577.110962,1552.091064 544.322449,1534.156616 514.731384,1510.359863 
	C484.581390,1486.113647 453.375275,1463.479004 418.506775,1445.087891 
	C426.305054,1444.927246 434.575775,1445.251221 442.849396,1445.457031 
	C445.471283,1445.522339 448.101562,1445.170166 450.727081,1445.184204 
	C461.312012,1445.240967 471.896576,1445.372437 482.481384,1445.463745 
	C488.014832,1445.511597 493.549744,1445.626587 499.081848,1445.551392 
	C529.827454,1445.133911 559.961731,1450.368408 589.924683,1456.193481 
	C630.095276,1464.003052 669.476685,1475.137085 708.245178,1488.154785 
	C750.918884,1502.483643 791.458679,1521.667480 830.225830,1544.588623 
	C844.549438,1553.057617 858.606628,1562.165527 873.595764,1569.272827 
	C892.479736,1578.227173 911.781982,1586.713379 931.645630,1593.091187 
	C962.018921,1602.843628 992.798279,1611.589478 1023.842285,1618.908936 
	C1046.064941,1624.148560 1068.926147,1626.979736 1091.639893,1629.764771 
	C1125.099609,1633.867310 1158.836792,1635.909302 1192.172241,1640.771851 
	C1233.458862,1646.793945 1273.098267,1659.358521 1311.583252,1675.555786 
	C1337.373413,1686.409912 1362.299683,1698.790527 1385.644531,1715.426147 
	C1339.958252,1716.000000 1293.916382,1716.000000 1246.937256,1716.000000 
z"/>
<path fill="#004679" opacity="1.000000" stroke="none" 
	d="
M225.243195,1422.184814 
	C223.751205,1423.530396 221.569504,1425.304565 219.101196,1425.909668 
	C188.785507,1433.340820 158.631378,1441.646240 128.022690,1447.605347 
	C98.698349,1453.314331 69.150185,1450.263306 39.934952,1444.472046 
	C27.897005,1442.085938 15.777707,1440.110107 2.847718,1437.973755 
	C2.000000,1427.955811 2.000000,1417.911621 2.000000,1406.933716 
	C9.547957,1405.190063 17.130110,1404.616211 24.637760,1403.528198 
	C52.097687,1399.548340 79.463005,1401.520630 106.830063,1404.485596 
	C115.364548,1405.410156 123.889908,1406.517456 132.449570,1407.093628 
	C163.586380,1409.189697 193.867020,1416.448730 225.243195,1422.184814 
z"/>
<path fill="#01477A" opacity="1.000000" stroke="none" 
	d="
M2021.860596,1706.057617 
	C2010.298828,1708.319702 1999.172852,1710.068848 1988.086914,1712.042725 
	C1984.934692,1712.604126 1981.899048,1713.819580 1978.404907,1715.367432 
	C1975.866577,1716.000000 1973.733276,1716.000000 1970.210693,1715.616699 
	C1965.214478,1715.488892 1961.607178,1715.744507 1958.000000,1716.000000 
	C1949.286255,1716.000000 1940.572388,1716.000000 1930.929321,1716.000000 
	C1930.668701,1707.011841 1937.440674,1702.222412 1943.513794,1697.315063 
	C1957.333740,1686.148193 1973.451172,1679.343750 1989.882935,1672.799805 
	C2013.431030,1663.421753 2037.797119,1657.424927 2062.525879,1652.699341 
	C2074.528320,1650.405640 2086.757568,1649.190308 2098.929199,1647.918091 
	C2114.028076,1646.339966 2129.173828,1645.208740 2145.110840,1643.890747 
	C2142.614990,1646.560913 2139.675293,1650.001831 2135.942871,1651.767578 
	C2101.343750,1668.137085 2066.599365,1684.200439 2031.923828,1700.409912 
	C2028.626831,1701.951172 2025.511353,1703.880737 2021.860596,1706.057617 
z"/>
<path fill="#014679" opacity="1.000000" stroke="none" 
	d="
M3288.000000,1443.062744 
	C3255.053467,1445.080566 3222.229004,1443.360107 3189.516357,1439.479248 
	C3185.976807,1439.059204 3182.575439,1437.470703 3178.506348,1435.937744 
	C3192.650635,1428.912109 3207.282471,1422.093262 3222.174561,1415.900269 
	C3243.506592,1407.029053 3265.028809,1398.614868 3287.234863,1390.002808 
	C3288.000000,1407.375122 3288.000000,1424.750366 3288.000000,1443.062744 
z"/>
<path fill="#0076CE" opacity="1.000000" stroke="none" 
	d="
M1958.856934,1716.000000 
	C1961.607178,1715.744507 1965.214478,1715.488892 1969.410889,1715.616699 
	C1966.571289,1716.000000 1963.142578,1716.000000 1958.856934,1716.000000 
z"/>
<path fill="#014679" opacity="1.000000" stroke="none" 
	d="
M2865.412109,1480.432861 
	C2868.181396,1483.327515 2866.828369,1485.217285 2864.075439,1486.691528 
	C2858.208252,1489.833496 2852.361328,1493.013916 2846.497559,1496.162964 
	C2786.539062,1528.362061 2725.361084,1557.567383 2658.621582,1573.272339 
	C2615.053711,1583.524658 2570.937744,1589.247559 2526.178711,1590.128540 
	C2513.543945,1590.377197 2500.922363,1591.389282 2488.288818,1591.526367 
	C2482.710693,1591.587036 2477.118896,1590.338623 2470.751221,1589.176758 
	C2469.969238,1588.668945 2469.988770,1588.208374 2469.988770,1588.208374 
	C2488.813965,1580.744629 2507.872559,1573.814453 2526.408936,1565.691772 
	C2553.794189,1553.691528 2580.539551,1540.210571 2608.058350,1528.542236 
	C2633.458496,1517.772217 2659.674561,1509.110962 2686.626709,1502.767944 
	C2721.220215,1494.626465 2756.164062,1488.734131 2791.568359,1485.852905 
	C2814.275635,1484.004761 2837.048340,1482.964355 2859.788330,1481.510986 
	C2861.420654,1481.406616 2863.025879,1480.885376 2865.412109,1480.432861 
z"/>
<path fill="#01477A" opacity="1.000000" stroke="none" 
	d="
M2469.094238,1588.146362 
	C2469.988770,1588.208374 2469.969238,1588.668945 2469.950684,1588.895020 
	C2464.552734,1589.016846 2459.173584,1588.912476 2453.112305,1588.554932 
	C2457.686768,1588.229248 2462.943359,1588.156860 2469.094238,1588.146362 
z"/>
</svg>