<svg width="48" height="48" viewBox="0 0 48 48" fill="none" xmlns="http://www.w3.org/2000/svg">
    <path fill-rule="evenodd" clip-rule="evenodd"
        d="M24 48C37.2548 48 48 37.2548 48 24C48 10.7452 37.2548 0 24 0C10.7452 0 0 10.7452 0 24C0 37.2548 10.7452 48 24 48ZM18.9416 19.9035V32.3999C18.9416 34.6649 18.5511 36.9298 16.208 37.7889C10.1161 39.8196 9.41315 32.3218 13.865 31.6189C16.208 31.3585 17.3796 30.8378 17.3796 30.0568V14.2021C17.3796 12.9525 18.3949 12.7962 18.3949 12.7962L31.6723 10.0627C33 9.67216 33 11.2342 33 11.2342V29.5101C33 31.7751 32.6095 34.04 30.2664 34.8992C24.1745 36.9298 23.4715 29.432 27.9234 28.7291C30.2664 28.4687 31.438 27.9481 31.438 27.167V17.6386C31.3859 17.0138 31.0735 16.7534 30.5007 16.8576L19.7226 19.0444C19.202 19.1486 18.9416 19.4349 18.9416 19.9035Z"
        fill="#FCFCFC" />
</svg>