<svg width="798" height="776" viewBox="0 0 798 776" fill="none" xmlns="http://www.w3.org/2000/svg">
    <circle cx="55" cy="350" r="53.5" stroke="#FCFCFC" stroke-width="3" />
    <circle cx="340" cy="55" r="53.5" stroke="#FCFCFC" stroke-width="3" />
    <circle cx="688" cy="570" r="53.5" stroke="#FCFCFC" stroke-width="3" />
    <circle cx="230" cy="721" r="53.5" stroke="#FCFCFC" stroke-width="3" />
    <circle cx="743" cy="194" r="53.5" stroke="#FCFCFC" stroke-width="3" />
    <path
        d="M101 295L117.832 290.916L105.879 278.381L101 295ZM295 110L278.168 114.084L290.121 126.619L295 110ZM111.805 286.769L286.265 120.402L284.195 118.231L109.735 284.598L111.805 286.769Z"
        fill="#FCFCFC" />
    <path
        d="M122 383L133.663 395.805L138.921 379.302L122 383ZM621.455 540.571L135.318 385.669L134.407 388.528L620.545 543.429L621.455 540.571Z"
        fill="#FCFCFC" />
    <path
        d="M643 515L642.094 497.703L627.567 507.136L643 515ZM378.742 110.817L634.39 504.495L636.906 502.861L381.258 109.183L378.742 110.817Z"
        fill="#FCFCFC" />
    <path
        d="M678 217L661.576 211.501L665.025 228.474L678 217ZM122.299 331.47L665.069 221.159L664.472 218.219L121.701 328.53L122.299 331.47Z"
        fill="#FCFCFC" />
    <path
        d="M702 498L712.621 484.318L695.461 481.961L702 498ZM732.514 264.796L702.351 484.421L705.323 484.83L735.486 265.204L732.514 264.796Z"
        fill="#FCFCFC" />
    <path
        d="M295 699L311.869 702.928L306.836 686.355L295 699ZM620.564 598.565L307.482 693.642L308.353 696.512L621.436 601.435L620.564 598.565Z"
        fill="#FCFCFC" />
    <path
        d="M77 414L75.4053 431.247L91.139 424.004L77 414ZM194.363 665.373L84.0075 425.636L81.2824 426.89L191.637 666.627L194.363 665.373Z"
        fill="#FCFCFC" />
    <path
        d="M54.0234 361.277V362H42.6758V361.277H43.6133C44.707 361.277 45.5013 360.958 45.9961 360.32C46.3086 359.904 46.4648 358.901 46.4648 357.312V340.203C46.4648 338.862 46.3802 337.977 46.2109 337.547C46.0807 337.221 45.8138 336.941 45.4102 336.707C44.8372 336.395 44.2383 336.238 43.6133 336.238H42.6758V335.516H54.0234V336.238H53.0664C51.9857 336.238 51.1979 336.557 50.7031 337.195C50.3776 337.612 50.2148 338.615 50.2148 340.203V357.312C50.2148 358.654 50.2995 359.539 50.4688 359.969C50.599 360.294 50.8724 360.574 51.2891 360.809C51.849 361.121 52.4414 361.277 53.0664 361.277H54.0234ZM67.3438 361.277V362H55.9961V361.277H56.9336C58.0273 361.277 58.8216 360.958 59.3164 360.32C59.6289 359.904 59.7852 358.901 59.7852 357.312V340.203C59.7852 338.862 59.7005 337.977 59.5312 337.547C59.401 337.221 59.1341 336.941 58.7305 336.707C58.1576 336.395 57.5586 336.238 56.9336 336.238H55.9961V335.516H67.3438V336.238H66.3867C65.306 336.238 64.5182 336.557 64.0234 337.195C63.6979 337.612 63.5352 338.615 63.5352 340.203V357.312C63.5352 358.654 63.6198 359.539 63.7891 359.969C63.9193 360.294 64.1927 360.574 64.6094 360.809C65.1693 361.121 65.7617 361.277 66.3867 361.277H67.3438Z"
        fill="white" />
    <path
        d="M237.285 706.516V707.238C236.348 707.408 235.638 707.707 235.156 708.137C234.466 708.775 233.854 709.751 233.32 711.066L224.082 733.605H223.359L213.438 710.773C212.93 709.602 212.572 708.885 212.363 708.625C212.038 708.221 211.634 707.909 211.152 707.688C210.684 707.453 210.046 707.303 209.238 707.238V706.516H220.059V707.238C218.835 707.355 218.04 707.564 217.676 707.863C217.311 708.163 217.129 708.547 217.129 709.016C217.129 709.667 217.428 710.682 218.027 712.062L224.766 727.59L231.016 712.258C231.628 710.747 231.934 709.699 231.934 709.113C231.934 708.736 231.745 708.378 231.367 708.039C230.99 707.688 230.352 707.44 229.453 707.297C229.388 707.284 229.277 707.264 229.121 707.238V706.516H237.285ZM250.137 732.277V733H238.789V732.277H239.727C240.82 732.277 241.615 731.958 242.109 731.32C242.422 730.904 242.578 729.901 242.578 728.312V711.203C242.578 709.862 242.493 708.977 242.324 708.547C242.194 708.221 241.927 707.941 241.523 707.707C240.951 707.395 240.352 707.238 239.727 707.238H238.789V706.516H250.137V707.238H249.18C248.099 707.238 247.311 707.557 246.816 708.195C246.491 708.612 246.328 709.615 246.328 711.203V728.312C246.328 729.654 246.413 730.539 246.582 730.969C246.712 731.294 246.986 731.574 247.402 731.809C247.962 732.121 248.555 732.277 249.18 732.277H250.137Z"
        fill="white" />
    <path
        d="M693.684 581.277V582H682.336V581.277H683.273C684.367 581.277 685.161 580.958 685.656 580.32C685.969 579.904 686.125 578.901 686.125 577.312V560.203C686.125 558.862 686.04 557.977 685.871 557.547C685.741 557.221 685.474 556.941 685.07 556.707C684.497 556.395 683.898 556.238 683.273 556.238H682.336V555.516H693.684V556.238H692.727C691.646 556.238 690.858 556.557 690.363 557.195C690.038 557.612 689.875 558.615 689.875 560.203V577.312C689.875 578.654 689.96 579.539 690.129 579.969C690.259 580.294 690.533 580.574 690.949 580.809C691.509 581.121 692.102 581.277 692.727 581.277H693.684Z"
        fill="white" />
    <path
        d="M353.945 41.5156V42.2383C353.008 42.4076 352.298 42.707 351.816 43.1367C351.126 43.7747 350.514 44.7513 349.98 46.0664L340.742 68.6055H340.02L330.098 45.7734C329.59 44.6016 329.232 43.8854 329.023 43.625C328.698 43.2214 328.294 42.9089 327.812 42.6875C327.344 42.4531 326.706 42.3034 325.898 42.2383V41.5156H336.719V42.2383C335.495 42.3555 334.701 42.5638 334.336 42.8633C333.971 43.1628 333.789 43.5469 333.789 44.0156C333.789 44.6667 334.089 45.6823 334.688 47.0625L341.426 62.5898L347.676 47.2578C348.288 45.7474 348.594 44.6992 348.594 44.1133C348.594 43.7357 348.405 43.3776 348.027 43.0391C347.65 42.6875 347.012 42.4401 346.113 42.2969C346.048 42.2839 345.938 42.2643 345.781 42.2383V41.5156H353.945Z"
        fill="white" />
    <path
        d="M734.23 206.277V207H722.883V206.277H723.82C724.914 206.277 725.708 205.958 726.203 205.32C726.516 204.904 726.672 203.901 726.672 202.312V185.203C726.672 183.862 726.587 182.977 726.418 182.547C726.288 182.221 726.021 181.941 725.617 181.707C725.044 181.395 724.445 181.238 723.82 181.238H722.883V180.516H734.23V181.238H733.273C732.193 181.238 731.405 181.557 730.91 182.195C730.585 182.612 730.422 183.615 730.422 185.203V202.312C730.422 203.654 730.507 204.539 730.676 204.969C730.806 205.294 731.079 205.574 731.496 205.809C732.056 206.121 732.648 206.277 733.273 206.277H734.23ZM763.605 180.516V181.238C762.668 181.408 761.958 181.707 761.477 182.137C760.786 182.775 760.174 183.751 759.641 185.066L750.402 207.605H749.68L739.758 184.773C739.25 183.602 738.892 182.885 738.684 182.625C738.358 182.221 737.954 181.909 737.473 181.688C737.004 181.453 736.366 181.303 735.559 181.238V180.516H746.379V181.238C745.155 181.355 744.361 181.564 743.996 181.863C743.632 182.163 743.449 182.547 743.449 183.016C743.449 183.667 743.749 184.682 744.348 186.062L751.086 201.59L757.336 186.258C757.948 184.747 758.254 183.699 758.254 183.113C758.254 182.736 758.065 182.378 757.688 182.039C757.31 181.688 756.672 181.44 755.773 181.297C755.708 181.284 755.598 181.264 755.441 181.238V180.516H763.605Z"
        fill="white" />
</svg>