<svg width="48" height="48" viewBox="0 0 48 48" fill="none" xmlns="http://www.w3.org/2000/svg">
    <path fill-rule="evenodd" clip-rule="evenodd"
        d="M24 48C37.2548 48 48 37.2548 48 24C48 10.7452 37.2548 0 24 0C10.7452 0 0 10.7452 0 24C0 37.2548 10.7452 48 24 48ZM9.87708 17.8703C10.104 17.5572 10.446 17.3469 10.828 17.2858H10.7992C10.8568 17.2824 10.9145 17.2824 10.972 17.2858C11.0583 17.2781 11.145 17.2781 11.2313 17.2858H16.9923C17.2574 17.2906 17.5159 17.3684 17.7395 17.5107C17.9632 17.6529 18.1432 17.854 18.2598 18.092L19.3544 20.1649H32.1439C32.5472 20.1649 32.72 20.5104 32.6048 20.8846L30.2716 28.0822C30.1564 28.4565 29.6955 28.8019 29.2922 28.8019H19.2103C18.8359 28.8019 18.3462 28.4565 18.231 28.0822L17.0499 24.4834L15.8689 20.8846L15.6097 20.1649H11.2889C10.9069 20.226 10.5163 20.1329 10.203 19.9061C9.88965 19.6793 9.6793 19.3375 9.61818 18.9557C9.55706 18.5739 9.65019 18.1835 9.87708 17.8703ZM18.4902 33.1205C18.4902 32.3144 19.1239 31.681 19.9305 31.681C20.737 31.681 21.3707 32.3144 21.3707 33.1205C21.3707 33.9266 20.737 34.56 19.9305 34.56C19.1239 34.56 18.4902 33.9266 18.4902 33.1205ZM27.1318 33.1205C27.1318 32.3144 27.7655 31.681 28.5721 31.681C29.3786 31.681 30.0123 32.3144 30.0123 33.1205C30.0123 33.9266 29.3786 34.56 28.5721 34.56C27.7655 34.56 27.1318 33.9266 27.1318 33.1205Z"
        fill="#FCFCFC" />
</svg>