<svg width="1111" height="712" viewBox="0 0 1111 712" fill="none" xmlns="http://www.w3.org/2000/svg">
    <path
        d="M13 355.81C47.6287 291.54 71.7951 254.5 101.5 254.5C134.341 254.5 148.854 293.355 184.5 355.81M524.5 356.5C559.129 420.77 583.8 461.301 613.505 461.301C646.346 461.301 660.859 422.446 696.505 359.992M184 354.5C218.376 418.936 238.685 461.1 269.376 460.452C303.307 459.735 318.307 418.629 356.5 354.5M696.005 361.301C730.381 296.865 750.69 254.701 781.381 255.349C815.312 256.066 830.313 297.172 868.505 361.301M354.005 358.455C388.634 294.184 412.8 257.145 442.505 257.145C475.346 257.145 489.859 296 525.505 358.455M866.011 357.347C900.639 421.617 925.047 462.438 954.511 458.656C983 455 998.354 419.801 1034 357.347"
        stroke="#FCFCFC" stroke-opacity="0.5" stroke-width="8" />
    <path
        d="M9.06518 355.042C8.01732 356.987 8.74444 359.413 10.6893 360.461C12.6341 361.509 15.0601 360.782 16.108 358.837L9.06518 355.042ZM267.004 47.214L267.004 51.214H267.004L267.004 47.214ZM16.108 358.837C68.6378 261.343 109.58 184.234 148.606 131.432C187.659 78.5948 223.994 51.214 267.004 51.214L267.004 43.214C220.015 43.214 181.6 73.3333 142.173 126.677C102.72 180.057 61.4533 257.811 9.06518 355.042L16.108 358.837ZM267.004 51.214C314.76 51.214 351.093 79.9696 389.313 133.443C427.593 187.001 466.874 264.035 521.031 358.923L527.979 354.957C474.135 260.619 434.416 182.79 395.821 128.791C357.166 74.7085 318.749 43.214 267.004 43.214L267.004 51.214Z"
        fill="#FCFCFC" />
    <path
        d="M1032.03 352.975C1033.13 351.057 1035.57 350.389 1037.49 351.484C1039.41 352.579 1040.07 355.022 1038.98 356.941L1032.03 352.975ZM778.004 664.684L778.004 660.684H778.004L778.004 664.684ZM527.108 353.061C579.638 450.555 620.58 527.664 659.606 580.466C698.659 633.303 734.994 660.684 778.004 660.684L778.004 668.684C731.015 668.684 692.6 638.565 653.173 585.221C613.72 531.841 572.453 454.087 520.065 356.855L527.108 353.061ZM778.004 660.684C825.76 660.684 862.093 631.928 900.313 578.455C938.593 524.897 977.874 447.863 1032.03 352.975L1038.98 356.941C985.135 451.279 945.416 529.108 906.821 583.106C868.166 637.189 829.749 668.684 778.004 668.684L778.004 660.684Z"
        fill="#FCFCFC" />
</svg>