<svg width="1032" height="626" viewBox="0 0 1032 626" fill="none" xmlns="http://www.w3.org/2000/svg">
    <path
        d="M4.60614 312.692C33.6079 125.624 56 22 87 20.9999C102 21 114 40.5 130.5 62.5C147.246 82.895 158 98 174.5 98C192 98 200 85.5 220.5 65M1025.55 313C996.549 500.068 974.157 603.692 943.156 604.692C928.156 604.692 916.157 585.192 899.657 563.192C882.911 542.797 872.157 527.692 855.657 527.692C838.156 527.692 830.157 540.192 809.657 560.692M733.14 560.795C712.64 540.295 704.64 527.795 687.14 527.795C670.64 527.795 659.886 542.9 643.14 563.295C626.64 585.295 614.64 604.795 599.64 604.795C568.64 603.795 544.502 499.568 515.5 312.5C486.498 125.432 461.517 22.1026 430.517 21.1026C415.517 21.1026 403.517 40.6026 387.017 62.6026C370.271 82.9976 359.517 98.1027 343.017 98.1027C325.517 98.1027 317.517 85.6026 297.017 65.1027M220 65.5C234.048 52.1959 243 43 259 43C276 43 284 52.5 297.5 65.5M732.64 560.295C746.688 573.599 755.64 582.795 771.64 582.795C788.64 582.795 796.64 573.295 810.14 560.295"
        stroke="#FCFCFC" stroke-opacity="0.5" stroke-width="3" />
    <path
        d="M4.62006 312.675C35.1368 260.917 45.5 250.5 58.5 250.5C73.5 250.5 87.9999 268.325 109 312.5C134 363.5 148 375 161 375C176 375 189.5 356 211 312.5M515.5 312C544.5 364.5 552.47 375.573 565.47 375.573C580.47 375.573 594.97 357.748 615.97 313.573C640.97 262.573 654.97 251.073 667.97 251.073C682.97 251.073 696.47 270.073 717.97 313.573M210.59 313.156C236.5 259 249 251 262 251C277 251 289.5 269 312.5 313.156M717.56 312.917C743.47 367.073 755.97 375.073 768.97 375.073C783.97 375.073 796.47 357.073 819.47 312.917M312.5 313C336.5 362.5 350 375 363 375C378 375 392 355.5 413.5 313C437.5 263.5 451.007 250.754 464.007 250.754C479.007 250.754 492.493 269.746 516 313M819.47 313.073C843.47 263.573 856.97 251.073 869.97 251.073C884.97 251.073 898.97 270.573 920.47 313.073C944.47 362.573 959 375 972 375C987 375 1004 356 1026 313.073"
        stroke="#FCFCFC" stroke-opacity="0.25" stroke-width="4" />
    <path
        d="M5 312.81C39.6287 248.54 63.7951 211.5 93.5001 211.5C126.341 211.5 140.854 250.355 176.5 312.81M516.5 313.5C551.129 377.77 575.8 418.301 605.505 418.301C638.346 418.301 652.859 379.446 688.505 316.992M176 311.5C210.376 375.936 230.685 418.1 261.376 417.452C295.307 416.735 310.307 375.629 348.5 311.5M688.005 318.301C722.381 253.865 742.69 211.701 773.381 212.349C807.312 213.066 822.313 254.172 860.505 318.301M346.005 315.455C380.634 251.184 404.8 214.145 434.505 214.145C467.346 214.145 481.859 253 517.505 315.455M858.011 314.347C892.639 378.617 917.047 419.438 946.511 415.656C975 412 990.354 376.801 1026 314.347"
        stroke="#FCFCFC" stroke-opacity="0.5" stroke-width="8" />
    <path
        d="M1.06516 312.043C0.0172985 313.987 0.744419 316.413 2.68923 317.461C4.63404 318.509 7.06008 317.782 8.10794 315.837L1.06516 312.043ZM259.004 4.21405L259.004 8.21405L259.004 8.21405L259.004 4.21405ZM770.004 621.684L770.004 617.684L770.004 617.684L770.004 621.684ZM1030.98 313.941C1032.07 312.022 1031.41 309.579 1029.49 308.484C1027.57 307.389 1025.13 308.057 1024.03 309.975L1030.98 313.941ZM8.10794 315.837C60.6378 218.343 101.58 141.234 140.606 88.4323C179.659 35.5948 215.994 8.21403 259.004 8.21405L259.004 0.21405C212.015 0.214027 173.6 30.3333 134.173 83.6773C94.7197 137.057 53.4532 214.811 1.06516 312.043L8.10794 315.837ZM259.004 8.21405C306.76 8.21406 343.093 36.9696 381.313 90.4432C419.593 144.001 458.874 221.035 513.031 315.923L519.979 311.957C466.135 217.619 426.416 139.79 387.821 85.7914C349.166 31.7085 310.749 0.214059 259.004 0.21405L259.004 8.21405ZM512.065 313.855C564.453 411.087 605.72 488.841 645.173 542.221C684.6 595.565 723.015 625.684 770.004 625.684L770.004 617.684C726.994 617.684 690.659 590.303 651.606 537.466C612.58 484.664 571.638 407.555 519.108 310.061L512.065 313.855ZM770.004 625.684C821.749 625.684 860.166 594.189 898.821 540.106C937.416 486.108 977.135 408.279 1030.98 313.941L1024.03 309.975C969.874 404.863 930.593 481.897 892.313 535.455C854.093 588.928 817.76 617.684 770.004 617.684L770.004 625.684Z"
        fill="#FCFCFC" />
</svg>