<svg width="48" height="48" viewBox="0 0 48 48" fill="none" xmlns="http://www.w3.org/2000/svg">
    <path
        d="M24.0287 0C27.3548 0 30.4707 0.630824 33.3763 1.89247C36.282 3.15412 38.8148 4.86499 40.9749 7.02509C43.135 9.18519 44.8459 11.718 46.1075 14.6237C47.3692 17.5293 48 20.6452 48 23.9713C48 27.2975 47.3692 30.4134 46.1075 33.319C44.8459 36.2246 43.135 38.767 40.9749 40.9462C38.8148 43.1254 36.282 44.8459 33.3763 46.1075C30.4707 47.3692 27.3548 48 24.0287 48C20.7025 48 17.5866 47.3692 14.681 46.1075C11.7754 44.8459 9.23298 43.1254 7.05376 40.9462C4.87455 38.767 3.15412 36.2246 1.89247 33.319C0.630824 30.4134 0 27.2975 0 23.9713C0 20.6452 0.630824 17.5293 1.89247 14.6237C3.15412 11.718 4.87455 9.18519 7.05376 7.02509C9.23298 4.86499 11.7754 3.15412 14.681 1.89247C17.5866 0.630824 20.7025 0 24.0287 0ZM10.3226 24.4301C9.51971 25.1183 9.11828 25.9594 9.11828 26.9534C9.11828 27.9857 9.51971 28.8076 10.3226 29.4194V24.4301ZM12.7885 23.6846H12.5018C12.3106 23.6846 12.1481 23.6941 12.0143 23.7133C11.8805 23.7324 11.718 23.7611 11.5269 23.7993V30.1075C11.718 30.1458 11.8805 30.1744 12.0143 30.1935C12.1481 30.2127 12.3106 30.2222 12.5018 30.2222H12.7885V23.6846ZM15.3118 21.9642C14.8148 22.5759 14.4707 23.3214 14.2796 24.2007C14.2413 24.1625 14.2031 24.1338 14.1649 24.1147C14.1266 24.0956 14.0884 24.0669 14.0502 24.0287V30.2222H15.3118V21.9642ZM17.7778 20.1864C17.5484 20.2628 17.3286 20.3584 17.1183 20.4731C16.908 20.5878 16.7073 20.7025 16.5161 20.8172V30.2222H17.7778V20.1864ZM20.3011 20.0143C20.1481 19.9761 20.0143 19.9474 19.8996 19.9283C19.7849 19.9092 19.6511 19.8996 19.4982 19.8996C19.4217 19.8996 19.3453 19.9092 19.2688 19.9283C19.1924 19.9474 19.1159 19.957 19.0394 19.957V30.2222H20.3011V20.0143ZM22.767 19.8996C22.6906 20.0526 22.595 20.1864 22.4803 20.3011C22.3656 20.4158 22.27 20.5305 22.1935 20.6452C21.773 20.4158 21.3524 20.2437 20.9319 20.129V30.2222H22.767V19.8996ZM35.2688 30.2222C36.4922 30.1458 37.4002 29.7634 37.9928 29.0753C38.5854 28.3871 38.8817 27.5651 38.8817 26.6093C38.8817 25.6153 38.5472 24.7742 37.8781 24.086C37.2091 23.3979 36.3584 23.0538 35.3262 23.0538C34.9056 23.0538 34.4468 23.1493 33.9498 23.3405C33.7587 21.773 33.0705 20.4444 31.8853 19.3548C30.7001 18.2652 29.2855 17.7204 27.6416 17.7204C26.8005 17.7204 26.0263 17.8638 25.319 18.1505C24.6117 18.4373 23.9713 18.8292 23.3979 19.3262V30.2222H35.2688Z"
        fill="#FCFCFC" />
</svg>