<svg version="1.1" id="Layer_1" xmlns="http://www.w3.org/2000/svg" xmlns:xlink="http://www.w3.org/1999/xlink" x="0px"
	y="0px" preserveAspectRatio="xMaxYMax"  viewBox="0 -490 1000 800"  enable-background="new 0 0 2000 800">
	<path fill="#77c2f8" opacity="1.000000" stroke="none" d="
M2389.000000,125.000000 
	C2389.000000,639.630310 2389.000000,1154.260620 2389.000000,1668.945557 
	C1593.092529,1668.945557 797.185181,1668.945557 1.000000,1668.945557 
	C1.000000,1154.629150 1.000000,640.258179 1.462432,125.441406 
	C18.023499,124.695572 32.920300,128.515274 46.346207,137.674210 
	C50.419617,140.453033 59.735241,137.770432 61.930767,133.405289 
	C66.674782,123.973251 73.501663,116.457214 82.458771,110.871391 
	C95.333351,102.842560 108.631889,99.875000 122.900032,107.299911 
	C123.681641,107.706642 125.081749,107.494080 125.952110,107.071571 
	C133.392899,103.459579 141.137726,101.557755 149.481689,101.892097 
	C150.997513,101.952835 152.801163,100.596024 154.092148,99.461456 
	C158.640503,95.464142 162.609207,90.670120 167.560776,87.299026 
	C176.244858,81.386787 186.199570,79.023529 196.707016,77.737534 
	C207.081314,76.467834 216.454742,78.412331 225.266754,83.219917 
	C233.918594,87.940125 236.689285,95.238564 235.232697,105.537247 
	C235.080856,106.610649 236.402832,108.447495 237.517227,109.051643 
	C243.202896,112.133987 247.655289,116.272751 250.681961,122.064323 
	C251.362152,123.365868 253.094742,124.417526 254.571579,124.950600 
	C260.889709,127.231201 266.480408,130.447342 269.846375,136.487946 
	C271.365692,139.214508 272.369873,142.228119 273.379883,144.580643 
	C278.064789,143.635178 282.106323,142.486313 286.221008,142.082016 
	C290.412506,141.670181 294.676025,141.990967 299.029388,141.990967 
	C304.613220,131.360809 313.974030,124.796364 324.862274,119.941475 
	C326.320465,119.291290 327.981537,118.087059 328.595917,116.713310 
	C333.501190,105.745163 342.393616,101.607368 353.991058,104.947380 
	C355.448364,105.367065 357.573944,105.320908 358.758362,104.536728 
	C367.412445,98.807076 376.703796,95.974525 387.168945,96.856575 
	C388.762756,96.990906 391.108185,95.672104 392.101532,94.298836 
	C401.033264,81.951500 412.444977,72.927483 426.405212,66.764069 
	C434.846527,63.037228 443.468964,60.831181 452.597839,59.694523 
	C463.751099,58.305801 473.927094,60.308132 483.516998,66.029121 
	C485.098907,66.972824 487.002808,67.867386 488.780670,67.913918 
	C502.164185,68.264175 513.872437,73.923843 517.448425,88.519272 
	C523.761292,89.020134 530.201965,88.736855 536.198425,90.233429 
	C542.029358,91.688698 547.618896,94.586708 552.918091,97.558113 
	C557.812622,100.302658 558.072510,105.387177 558.189636,110.607712 
	C558.278809,114.578316 563.466187,116.672684 567.217773,115.388626 
	C572.252014,113.665527 577.636597,112.871109 582.522705,110.840538 
	C586.199402,109.312576 590.919312,111.792404 593.799683,106.858566 
	C598.620178,98.601540 606.168274,92.836212 614.799438,89.181908 
	C623.282837,85.590157 632.288818,83.029579 641.174805,86.980927 
	C649.771179,73.682793 660.887207,66.620995 676.812744,66.810951 
	C688.448669,66.949753 703.297668,75.826599 705.963440,88.093788 
	C707.510498,95.212822 710.352234,100.791794 717.558838,103.502426 
	C718.810913,103.973389 719.896057,105.384262 720.642090,106.613586 
	C723.082764,110.635406 725.331360,114.773804 727.445007,118.499359 
	C734.844971,116.458572 742.207458,112.625969 749.429260,112.874954 
	C759.316528,113.215828 761.452881,107.210800 765.001343,100.607239 
	C773.767822,84.293335 791.513550,78.901176 807.397339,83.163589 
	C811.638062,84.301598 815.181519,85.521431 819.365723,83.122215 
	C821.652466,81.810997 824.697327,81.898125 827.227844,80.912186 
	C829.300903,80.104523 831.686096,79.073654 832.958435,77.400612 
	C841.733337,65.862411 852.727051,57.712090 866.843018,53.922806 
	C867.758301,53.677094 868.799316,52.569557 869.119690,51.635746 
	C874.587280,35.697636 886.346741,26.521532 901.920654,22.151407 
	C914.262146,18.688320 928.929932,21.172668 935.134888,34.466675 
	C935.437622,35.115406 936.315613,35.808529 937.011108,35.913113 
	C944.729065,37.073658 948.701599,42.425598 951.199829,48.436836 
	C955.159973,49.233608 958.483887,50.042065 961.854797,50.515682 
	C963.318420,50.721313 965.065857,50.623318 966.359863,49.994930 
	C970.157288,48.150887 973.641235,45.607513 977.522522,44.001568 
	C984.938782,40.932919 992.565613,38.491192 1000.761719,40.989883 
	C1006.999146,42.891449 1013.298462,43.809574 1019.874329,44.340984 
	C1029.363403,45.107834 1034.445801,51.861416 1035.076904,61.131306 
	C1035.176147,62.589378 1035.977783,64.258202 1036.975708,65.356232 
	C1046.330933,75.651230 1047.374878,82.801285 1040.651855,96.411087 
	C1043.261963,95.960304 1045.402222,96.005928 1047.167603,95.214920 
	C1055.457031,91.500557 1064.163330,90.045219 1073.050171,91.196388 
	C1076.860596,91.689980 1080.427734,94.091660 1084.094482,95.652107 
	C1085.862915,96.404663 1087.540161,97.647278 1089.371826,97.926926 
	C1097.194824,99.121269 1104.707153,100.975685 1107.923584,109.236427 
	C1109.649780,113.669968 1111.808350,116.533836 1116.431274,118.682671 
	C1121.562134,121.067574 1126.478149,120.834679 1130.030884,118.046951 
	C1137.421753,112.247749 1145.416626,110.367401 1154.381836,111.009529 
	C1161.157837,111.494843 1166.762329,114.281471 1169.954956,120.428589 
	C1171.643921,123.680458 1174.136963,124.867798 1177.325195,124.949837 
	C1183.506714,125.108917 1189.695557,125.023201 1195.881104,124.990471 
	C1210.957275,124.910706 1224.881714,128.830017 1237.529541,137.062973 
	C1242.823730,140.509079 1251.175537,138.480316 1254.041748,132.963669 
	C1258.749756,123.901970 1265.371338,116.412804 1273.984619,111.042915 
	C1286.859863,103.015953 1300.397949,99.623833 1314.869873,107.275139 
	C1315.649048,107.687103 1317.048706,107.500664 1317.914429,107.083870 
	C1325.360229,103.499084 1333.093384,101.543449 1341.442383,101.894257 
	C1342.964844,101.958237 1344.786255,100.630196 1346.075439,99.496437 
	C1350.621582,95.498329 1354.573975,90.682053 1359.529175,87.323692 
	C1368.216553,81.436043 1378.147095,79.000587 1388.667847,77.739082 
	C1399.034058,76.496086 1408.414551,78.384689 1417.234375,83.196411 
	C1425.870239,87.907768 1428.725464,95.339447 1427.236450,105.498413 
	C1427.078735,106.574745 1428.376221,108.439171 1429.483154,109.029976 
	C1435.360474,112.167168 1439.840576,116.515305 1442.913574,122.462372 
	C1443.512817,123.621826 1445.181152,124.420052 1446.526001,124.969688 
	C1452.162964,127.273384 1457.814941,129.501801 1460.861694,135.343994 
	C1462.535889,138.554337 1464.146606,141.797745 1465.545776,144.553284 
	C1470.026733,143.643799 1474.067139,142.487930 1478.181519,142.082092 
	C1482.380737,141.667908 1486.652588,141.990463 1491.017822,141.990463 
	C1496.578369,131.379639 1505.967407,124.843117 1516.823608,119.944954 
	C1518.281982,119.286934 1520.074585,118.101837 1520.557007,116.748810 
	C1524.371338,106.052811 1534.751343,101.601662 1545.952759,104.944031 
	C1547.404053,105.377068 1549.539917,105.337357 1550.723633,104.555397 
	C1559.378784,98.837845 1568.681763,95.857201 1579.116577,97.006645 
	C1581.657837,97.286568 1583.071411,96.429794 1584.589111,94.083412 
	C1587.235718,89.991989 1590.427979,86.112633 1593.984863,82.777306 
	C1605.098877,72.355812 1618.140991,65.108963 1632.956543,61.558441 
	C1642.792358,59.201321 1652.665283,58.180576 1662.948242,60.707989 
	C1671.267212,62.752659 1677.814819,69.709465 1687.119629,68.751976 
	C1689.253418,68.532402 1691.624634,69.509468 1693.731323,70.333221 
	C1702.317139,73.690567 1707.635498,79.992447 1709.345703,88.479019 
	C1716.042358,89.022499 1722.324341,88.745255 1728.159424,90.227341 
	C1733.989746,91.708214 1739.589355,94.563499 1744.888794,97.532486 
	C1749.771240,100.267891 1750.093140,105.334251 1750.186890,110.569084 
	C1750.258057,114.532967 1755.452759,116.680046 1759.182495,115.405609 
	C1764.218018,113.684944 1769.536255,112.757919 1774.505249,110.885849 
	C1778.487549,109.385643 1783.037109,111.107941 1786.496216,105.676735 
	C1792.028809,96.989426 1800.696777,90.925179 1810.806152,87.643684 
	C1818.293457,85.213318 1825.879517,83.855469 1833.179932,86.951591 
	C1841.743652,73.717827 1852.857300,66.645500 1868.772949,66.812897 
	C1880.523560,66.936485 1895.113647,75.899719 1898.019165,88.042503 
	C1899.525879,94.338974 1901.322876,100.102844 1908.195923,102.840790 
	C1910.259766,103.662964 1911.988647,105.916283 1913.306396,107.890747 
	C1915.640991,111.389061 1917.543213,115.175865 1919.434082,118.503448 
	C1926.817261,116.469612 1934.164795,112.677086 1941.396851,112.885521 
	C1951.204224,113.168175 1953.432739,107.312729 1956.991333,100.645172 
	C1965.704468,84.320160 1983.437378,78.911819 1999.361328,83.149551 
	C2003.580200,84.272308 2007.224243,85.763405 2011.309448,83.082703 
	C2012.568604,82.256294 2014.499268,82.531197 2015.951294,81.904823 
	C2019.034912,80.574440 2022.976685,79.750099 2024.857788,77.368538 
	C2033.835083,66.002579 2044.688965,57.723648 2058.804199,53.924812 
	C2059.723633,53.677433 2060.781250,52.595909 2061.100586,51.670010 
	C2066.516602,35.960415 2078.030762,26.862387 2093.410400,22.306135 
	C2105.387207,18.758007 2120.925781,20.952608 2127.123291,34.430962 
	C2127.424072,35.085106 2128.286133,35.809517 2128.972168,35.907921 
	C2136.729492,37.020863 2140.645020,42.435810 2143.227539,48.479401 
	C2147.116699,49.244068 2150.446045,50.032345 2153.819824,50.500057 
	C2155.287842,50.703548 2157.048828,50.652843 2158.326904,50.015919 
	C2161.966553,48.202148 2165.241699,45.553291 2168.995117,44.094528 
	C2176.583008,41.145306 2184.336182,38.421989 2192.725342,40.980232 
	C2198.956299,42.880280 2205.202393,44.053478 2211.844727,44.354733 
	C2217.474854,44.610073 2223.996338,47.911922 2225.423096,53.455395 
	C2227.350586,60.943394 2231.008789,66.996635 2234.821045,73.422371 
	C2239.114258,80.659294 2237.309570,88.389114 2232.098633,96.630348 
	C2235.421875,95.973724 2237.552002,95.938560 2239.335449,95.134438 
	C2247.629150,91.394997 2256.363281,90.071533 2265.235596,91.213654 
	C2269.024414,91.701408 2272.556641,94.203667 2276.198975,95.804863 
	C2277.822998,96.518768 2279.371826,97.690727 2281.057373,97.928932 
	C2289.061768,99.060104 2296.742188,100.861900 2299.963623,109.415634 
	C2301.657227,113.911964 2303.998291,116.677200 2308.604004,118.757111 
	C2313.925049,121.159966 2318.156250,119.978340 2322.691650,117.776825 
	C2326.743408,115.810112 2330.541504,112.794327 2334.802002,111.884735 
	C2346.256836,109.439407 2356.873535,110.455544 2362.968262,121.773438 
	C2363.405029,122.584145 2364.081299,123.674461 2364.828125,123.846481 
	C2372.803467,125.684128 2380.814209,127.387093 2389.000000,125.000000 
z">

		<animateMotion dur="30s" repeatCount="indefinite" path="M0,0 L-1194,0" />

	</path>

</svg>