<svg version="1.1" id="Layer_1" xmlns="http://www.w3.org/2000/svg" xmlns:xlink="http://www.w3.org/1999/xlink" x="0px"
	y="0px" preserveAspectRatio="xMaxYMax" viewBox="0 -500 1000 800" enable-background="new 0 0 2000 800">
	<path fill="#2a6db8" opacity="1.000000" stroke="none" d="
M2389.000000,195.000000 
	C2389.000000,686.297791 2389.000000,1177.595581 2389.000000,1668.946655 
	C1593.093262,1668.946655 797.186462,1668.946655 1.000000,1668.946655 
	C1.000000,1176.295776 1.000000,683.591492 1.436478,190.472427 
	C11.758965,188.128540 21.314348,188.772247 30.728365,192.787781 
	C32.499279,193.543182 35.331188,191.871735 37.654125,191.247986 
	C38.896027,190.914520 40.067810,190.211670 41.320499,190.044373 
	C48.962212,189.023743 56.618065,188.108963 64.625496,187.114639 
	C70.190331,172.607224 78.895828,167.500061 93.584999,166.182693 
	C97.575775,165.824799 100.331070,164.670273 102.975113,161.896515 
	C111.580887,152.868576 130.894180,148.706924 141.938889,159.903015 
	C142.250687,160.219101 142.806396,160.473434 143.240799,160.462234 
	C147.878571,160.342636 152.514618,160.031281 157.151474,160.025375 
	C171.632843,160.006912 182.911194,166.761719 192.611572,177.007523 
	C204.469437,168.358093 218.074615,164.816620 232.586563,163.902878 
	C233.847824,163.823486 235.271118,162.555649 236.186890,161.473923 
	C238.675949,158.533752 240.460663,154.815857 243.372681,152.450211 
	C251.225876,146.070496 260.477814,142.946548 270.017853,142.895615 
	C272.878601,136.463577 275.098602,130.184814 278.320190,124.470734 
	C287.907227,107.466255 301.981628,97.797340 322.259064,99.009468 
	C329.638763,99.450615 336.238861,102.013611 341.314392,107.284004 
	C343.946442,110.017075 346.726318,110.441704 349.807251,109.912331 
	C364.373474,107.409584 377.575134,110.489914 389.575348,119.042595 
	C390.296448,119.556519 391.258636,119.892601 392.143555,119.988266 
	C395.900482,120.394455 399.702240,120.472847 403.429932,121.046211 
	C414.402222,122.733910 423.040314,128.014984 428.740448,138.186768 
	C440.512024,137.630112 452.533203,137.182571 463.615234,143.194641 
	C464.123688,143.470490 465.220581,142.992599 465.885925,142.599289 
	C477.616638,135.664627 489.908630,130.181427 503.112091,126.521294 
	C518.137207,122.356178 533.284851,122.558792 548.741028,123.514687 
	C550.963135,116.157326 556.005676,110.629951 562.232849,106.079201 
	C571.909180,99.007736 582.651489,97.494942 594.212830,99.977585 
	C595.674561,100.291466 597.491699,99.669365 598.968140,99.056808 
	C602.938232,97.409698 606.681458,95.117470 610.751587,93.829681 
	C620.675110,90.689865 633.173950,95.597046 636.637939,101.610603 
	C666.260742,95.912758 705.938538,119.860039 713.538940,151.723572 
	C733.581421,153.336533 743.710571,168.284988 736.729004,196.368240 
	C740.070190,196.368240 743.683350,197.433456 746.118225,196.190445 
	C759.148987,189.538269 772.465515,186.114273 787.056519,189.849899 
	C787.949829,190.078613 789.362488,188.947098 790.310791,188.175003 
	C793.963257,185.201294 797.562073,182.158661 801.113037,179.063919 
	C808.389771,172.721878 819.102966,173.312836 826.216675,166.263229 
	C829.225769,163.281265 833.720764,161.671753 837.726379,159.846481 
	C848.960205,154.727341 860.738098,155.295410 872.595032,156.840851 
	C873.764160,156.993225 875.178345,156.562042 876.248230,155.978729 
	C887.099731,150.062469 898.373291,147.161514 910.948242,148.877197 
	C924.751343,150.760468 936.456970,155.741165 944.791382,167.353180 
	C945.385071,168.180313 946.742310,168.956665 947.721680,168.929657 
	C954.483398,168.743134 961.242371,168.388535 967.994324,167.962479 
	C969.550659,167.864273 971.482056,167.754837 972.551331,166.842453 
	C980.546509,160.020050 989.315735,154.740601 999.334778,151.328644 
	C1010.852478,147.406281 1022.293213,146.463165 1034.073242,149.923508 
	C1036.865845,150.743835 1039.921387,150.668655 1042.855957,151.006042 
	C1049.838867,151.808853 1056.819214,152.634262 1063.806274,153.399353 
	C1065.542236,153.589432 1067.640625,154.249298 1068.989014,153.556946 
	C1075.560669,150.182556 1082.533691,149.473404 1089.655518,150.053589 
	C1102.143677,151.070969 1112.751343,155.290192 1118.356567,167.732239 
	C1119.011108,169.184875 1120.968872,170.081558 1122.384155,171.154312 
	C1126.183960,174.034256 1130.025635,176.858887 1133.831665,179.730682 
	C1134.810547,180.469223 1135.605103,181.746490 1136.677734,182.020905 
	C1148.606689,185.072952 1160.209106,189.610703 1172.549072,190.792557 
	C1180.925781,191.594833 1189.478882,192.571060 1197.767212,191.700134 
	C1205.667969,190.869919 1212.950439,191.246292 1220.482178,193.640915 
	C1223.515625,194.605316 1227.224854,193.568268 1230.607544,193.244934 
	C1231.853027,193.125870 1233.014160,192.214996 1234.264893,192.047684 
	C1241.906982,191.025452 1249.563721,190.113174 1257.588623,189.117981 
	C1263.442993,174.376236 1271.557739,169.808746 1286.036377,168.216690 
	C1290.339355,167.743546 1293.599487,166.851364 1296.274292,163.564560 
	C1297.069458,162.587509 1298.110229,161.721786 1299.202881,161.089172 
	C1311.383911,154.036469 1323.437744,151.379257 1335.015625,162.335419 
	C1335.253540,162.560486 1335.796509,162.523285 1336.194092,162.510529 
	C1341.161499,162.351242 1346.132935,161.944427 1351.094482,162.044678 
	C1365.155029,162.328766 1376.178345,168.945663 1385.559814,178.945572 
	C1402.353760,168.413361 1409.213379,167.688599 1425.527100,165.914093 
	C1426.826416,165.772781 1428.254028,164.602600 1429.164917,163.524399 
	C1431.651367,160.581131 1433.410156,156.833679 1436.324707,154.478210 
	C1444.184570,148.125946 1453.402832,144.901215 1463.011230,144.918076 
	C1465.857666,138.506577 1468.070435,132.228516 1471.288574,126.516724 
	C1480.866699,109.516136 1494.923462,99.818527 1515.203369,101.008362 
	C1522.582764,101.441322 1529.224731,103.942772 1534.278076,109.241394 
	C1537.061890,112.160378 1540.018188,112.437614 1543.250732,111.887459 
	C1557.658325,109.435310 1570.675659,112.600143 1582.530762,121.009026 
	C1583.256470,121.523743 1584.205688,121.891525 1585.088013,121.987701 
	C1588.844360,122.397156 1592.645630,122.476341 1596.374146,123.044785 
	C1607.351807,124.718399 1616.005127,129.971878 1621.716675,140.143539 
	C1633.448608,139.678757 1645.481567,139.154312 1656.561768,145.177734 
	C1657.081421,145.460159 1658.194946,145.035904 1658.844849,144.636459 
	C1673.326904,135.734985 1688.788818,128.964127 1705.603516,126.556839 
	C1717.411011,124.866409 1729.500366,125.145515 1742.018066,124.517311 
	C1743.893799,118.167938 1748.998169,112.651558 1755.188477,108.097061 
	C1764.828369,101.004387 1775.593018,99.482994 1787.157349,101.975693 
	C1788.618408,102.290604 1790.434326,101.666817 1791.912842,101.058090 
	C1795.886841,99.421982 1799.652710,97.218285 1803.707642,95.853569 
	C1813.087036,92.697052 1826.258057,97.471283 1829.584351,103.595772 
	C1859.529541,97.903381 1899.099854,122.141930 1906.494629,153.689606 
	C1926.981079,155.409897 1936.607178,170.747879 1929.932617,197.502243 
	C1933.233154,199.066269 1936.445312,200.231659 1940.108521,198.112106 
	C1952.581787,190.895096 1965.787842,188.310410 1979.999512,191.849182 
	C1980.907227,192.075195 1982.324341,190.980667 1983.267578,190.210449 
	C1986.918701,187.228821 1990.493530,184.152420 1994.060791,181.069733 
	C2001.353638,174.767746 2012.036865,175.310654 2019.167358,168.268982 
	C2022.293823,165.181305 2026.937500,163.463074 2031.118286,161.642014 
	C2042.229126,156.802399 2053.848877,157.290955 2065.539795,158.833588 
	C2066.710205,158.987991 2068.127686,158.575272 2069.195801,157.994110 
	C2080.048096,152.089081 2091.315918,149.191544 2103.892822,150.871002 
	C2117.719971,152.717438 2129.381348,157.769302 2137.771729,169.301666 
	C2138.377197,170.133759 2139.699707,170.957458 2140.666016,170.931503 
	C2147.594482,170.745392 2154.519531,170.383759 2161.438721,169.962875 
	C2162.831787,169.878143 2164.552002,169.716766 2165.515869,168.887283 
	C2173.484375,162.029343 2182.269287,156.789658 2192.284424,153.347977 
	C2203.980225,149.328796 2215.586914,148.532547 2227.510742,151.979889 
	C2229.998535,152.699188 2232.694092,152.724350 2235.301025,153.002701 
	C2241.981445,153.715988 2248.655518,154.535034 2255.353516,155.016144 
	C2258.271240,155.225723 2261.481201,155.375320 2264.147217,154.413116 
	C2277.381104,149.637085 2296.883301,150.594070 2307.253662,163.203476 
	C2311.446045,168.301178 2314.548096,173.823700 2321.006104,176.686569 
	C2326.374756,179.066513 2329.025146,185.940598 2336.195068,185.906265 
	C2339.014893,185.892761 2342.021240,186.921814 2344.632568,188.140335 
	C2353.348877,192.207794 2362.813477,191.674408 2371.972656,192.977966 
	C2377.629883,193.783096 2383.322998,194.334625 2389.000000,195.000000 
z">
		<animateMotion dur="14s" repeatCount="indefinite" path="M0,0 L-1194,0" />


	</path>

</svg>